HIERARCHY
ROOT Hips
{
	OFFSET 0.000000 0.000000 0.000000
	CHANNELS 6 Xposition Yposition Zposition Zrotation Yrotation Xrotation 
	JOINT LHipJoint
	{
		OFFSET 0.000000 0.000000 0.000000
		CHANNELS 3 Zrotation Yrotation Xrotation
		JOINT LeftUpLeg
		{
			OFFSET 1.363060 -1.794630 0.839290
			CHANNELS 3 Zrotation Yrotation Xrotation
			JOINT LeftLeg
			{
				OFFSET 2.448110 -6.726130 0.000000
				CHANNELS 3 Zrotation Yrotation Xrotation
				JOINT LeftFoot
				{
					OFFSET 2.562200 -7.039590 0.000000
					CHANNELS 3 Zrotation Yrotation Xrotation
					JOINT LeftToeBase
					{
						OFFSET 0.157640 -0.433110 2.322550
						CHANNELS 3 Zrotation Yrotation Xrotation
						End Site
						{
							OFFSET 0.000000 0.000000 0.000000
						}
					}
				}
			}
		}
	}
	JOINT RHipJoint
	{
		OFFSET 0.000000 0.000000 0.000000
		CHANNELS 3 Zrotation Yrotation Xrotation
		JOINT RightUpLeg
		{
			OFFSET -1.305520 -1.794630 0.839290
			CHANNELS 3 Zrotation Yrotation Xrotation
			JOINT RightLeg
			{
				OFFSET -2.542530 -6.985550 0.000000
				CHANNELS 3 Zrotation Yrotation Xrotation
				JOINT RightFoot
				{
					OFFSET -2.568260 -7.056230 0.000000
					CHANNELS 3 Zrotation Yrotation Xrotation
					JOINT RightToeBase
					{
						OFFSET -0.164730 -0.452590 2.363150
						CHANNELS 3 Zrotation Yrotation Xrotation
						End Site
						{
							OFFSET 0.000000 0.000000 0.000000
						}
					}
				}
			}
		}
	}
}
MOTION
Frames: 11
Frame Time: 0.008333
5.143445 17.377298 1.176066 -177.659809 -58.715221 -172.745004 -12.334690 3.457096 -2.439558 -8.498550 35.303199 -12.804354 -3.400956 -0.898564 -1.360793 1.404291 10.972086 -1.090288 1.168700 0.000000 -26.558900 8.378354 -1.437321 5.635567 3.315360 12.236365 -13.594217 3.436826 1.473771 0.365348 1.633258 9.978223 5.061839 1.489200 0.000000 -42.303299
5.147526 17.377284 1.168939 -177.696428 -58.691051 -172.636717 -12.306082 3.430177 -2.422642 -8.573147 35.211813 -13.015424 -3.400451 -0.891103 -1.097545 1.424715 11.085804 -1.228787 1.156400 0.000000 -26.474800 8.382772 -1.446012 5.666430 3.290649 12.279390 -13.736002 3.433519 1.466075 0.398029 1.636920 10.024854 5.055492 1.500799 -0.000000 -42.299600
5.152110 17.377505 1.161828 -177.708965 -58.747640 -172.557908 -12.277778 3.403777 -2.391874 -8.625964 35.059279 -13.201783 -3.393564 -0.885003 -0.870674 1.444292 11.190627 -1.348621 1.147100 0.000000 -26.389000 8.388181 -1.453652 5.686738 3.287694 12.281017 -13.836302 3.431289 1.463118 0.392027 1.637008 10.030976 5.058627 1.504600 0.000000 -42.281200
5.157203 17.377872 1.154998 -177.700291 -58.878136 -172.509692 -12.250529 3.378256 -2.349287 -8.655336 34.850046 -13.353837 -3.380100 -0.880741 -0.687899 1.463163 11.289099 -1.448286 1.141400 0.000000 -26.300900 8.394646 -1.459847 5.695685 3.304424 12.243530 -13.893049 3.429925 1.464319 0.350781 1.633798 10.000765 5.069969 1.501100 0.000000 -42.251900
5.162535 17.378270 1.148631 -177.669742 -59.072876 -172.492082 -12.225146 3.353726 -2.298307 -8.660749 34.595219 -13.465924 -3.360823 -0.878605 -0.553636 1.480875 11.379580 -1.526775 1.139300 0.000000 -26.213700 8.401827 -1.464520 5.693590 3.338823 12.173125 -13.906610 3.429276 1.469142 0.277773 1.627428 9.937171 5.087316 1.490900 0.000000 -42.213500
5.168233 17.378633 1.142821 -177.623340 -59.320063 -172.501753 -12.201691 3.330117 -2.242099 -8.644639 34.307415 -13.537436 -3.336884 -0.878789 -0.469147 1.496926 11.460147 -1.584064 1.140601 -0.000000 -26.129500 8.409788 -1.467741 5.681679 3.387237 12.076402 -13.882066 3.428915 1.476568 0.180026 1.618318 9.846108 5.108213 1.474900 -0.000000 -42.166900
5.174273 17.378932 1.137674 -177.562498 -59.607379 -172.536986 -12.180309 3.307495 -2.183536 -8.610265 34.001344 -13.570622 -3.309717 -0.881369 -0.432602 1.510646 11.527892 -1.619574 1.145101 0.000000 -26.050300 8.418471 -1.470256 5.661839 3.446843 11.959047 -13.827135 3.428593 1.485413 0.066136 1.607030 9.734423 5.131565 1.454500 0.000000 -42.116500
5.180540 17.379123 1.133138 -177.489420 -59.922217 -172.593172 -12.161052 3.285673 -2.125636 -8.561675 33.693831 -13.571795 -3.281298 -0.886282 -0.439782 1.521038 11.577269 -1.633638 1.151900 -0.000000 -25.980201 8.427549 -1.472835 5.636801 3.514600 11.828822 -13.750116 3.428140 1.494910 -0.057924 1.594005 9.607426 5.155603 1.430700 0.000000 -42.061300
5.186979 17.379198 1.129120 -177.407320 -60.252833 -172.665435 -12.143810 3.264492 -2.070610 -8.504028 33.400529 -13.550008 -3.253671 -0.893361 -0.484383 1.527071 11.602000 -1.627411 1.160000 0.000000 -25.923100 8.436694 -1.476276 5.609548 3.587913 11.692019 -13.660876 3.427499 1.504359 -0.186179 1.579804 9.470955 5.179293 1.404700 0.000000 -42.001800
5.193563 17.379195 1.125517 -177.319138 -60.589746 -172.749277 -12.128467 3.243874 -2.019832 -8.441995 33.134573 -13.514794 -3.228608 -0.902338 -0.558920 1.527899 11.596959 -1.601783 1.168600 -0.000000 -25.882100 8.445596 -1.481459 5.582896 3.664626 11.553108 -13.567489 3.426713 1.513324 -0.314597 1.564968 9.330334 5.202169 1.377700 -0.000000 -41.936300
5.200159 17.379191 1.122213 -177.226941 -60.925461 -172.839757 -12.115021 3.224032 -1.973444 -8.380216 32.904958 -13.475946 -3.207535 -0.912927 -0.655548 1.523016 11.558726 -1.558079 1.176700 -0.000000 -25.858900 8.453871 -1.489274 5.559485 3.743037 11.414637 -13.477539 3.425938 1.521626 -0.440537 1.550029 9.189893 5.225314 1.350801 0.000000 -41.865600
